<svg id="Ebene_1" data-name="Ebene 1" xmlns="http://www.w3.org/2000/svg" viewBox="0 0 1000 1000"><defs><style>.cls-1{fill:#00add0;}.cls-2{fill:#fff;}</style></defs><rect class="cls-1" x="777.11" y="-10.86" width="115.18" height="352.21" transform="translate(127.63 638.62) rotate(-45)"/><rect class="cls-1" x="694.65" y="95.06" width="69.95" height="352.21" transform="translate(21.96 595.35) rotate(-45)"/><rect class="cls-1" x="94.19" y="392.54" width="568.18" height="69.95" transform="translate(-191.5 392.7) rotate(-45)"/><rect class="cls-1" x="292.55" y="590.18" width="568.18" height="69.95" transform="translate(-273.16 590.85) rotate(-45)"/><rect class="cls-1" x="191.55" y="489.18" width="568.18" height="69.95" transform="translate(-231.33 489.85) rotate(-45)"/><polygon class="cls-2" points="299.56 700.44 206.88 700.12 299.88 793.12 299.56 700.44"/><rect class="cls-1" x="-22.52" y="744.04" width="343.52" height="69.95" transform="translate(-643.56 754.18) rotate(-77.36)"/><rect class="cls-1" x="63.77" y="824.42" width="333.25" height="69.95" transform="translate(-211.75 87.29) rotate(-14.79)"/><rect class="cls-2" x="78.04" y="912.62" width="185.79" height="69.95" transform="translate(-236.23 75.03) rotate(-14.79)"/><rect class="cls-2" x="-1.2" y="861.17" width="104.82" height="69.95" transform="translate(-834.43 750.02) rotate(-77.36)"/><rect class="cls-1" x="136.2" y="792.11" width="69.95" height="83.44" transform="translate(-539.47 365.26) rotate(-45)"/></svg>